<svg width="22" height="22" viewBox="0 0 22 22" fill="none" xmlns="http://www.w3.org/2000/svg">
<g opacity="1">
<path d="M8.25002 4.58333C7.74376 4.58333 7.33335 4.99374 7.33335 5.5C7.33335 6.00626 7.74376 6.41667 8.25002 6.41667C8.75628 6.41667 9.16669 6.00626 9.16669 5.5C9.16669 4.99374 8.75628 4.58333 8.25002 4.58333ZM5.6565 4.58333C6.03402 3.51524 7.05265 2.75 8.25002 2.75C9.44739 2.75 10.466 3.51524 10.8435 4.58333H17.4167C17.9229 4.58333 18.3334 4.99374 18.3334 5.5C18.3334 6.00626 17.9229 6.41667 17.4167 6.41667H10.8435C10.466 7.48476 9.44739 8.25 8.25002 8.25C7.05265 8.25 6.03402 7.48476 5.6565 6.41667H4.58335C4.07709 6.41667 3.66669 6.00626 3.66669 5.5C3.66669 4.99374 4.07709 4.58333 4.58335 4.58333H5.6565ZM13.75 10.0833C13.2438 10.0833 12.8334 10.4937 12.8334 11C12.8334 11.5063 13.2438 11.9167 13.75 11.9167C14.2563 11.9167 14.6667 11.5063 14.6667 11C14.6667 10.4937 14.2563 10.0833 13.75 10.0833ZM11.1565 10.0833C11.534 9.01524 12.5527 8.25 13.75 8.25C14.9474 8.25 15.966 9.01524 16.3435 10.0833H17.4167C17.9229 10.0833 18.3334 10.4937 18.3334 11C18.3334 11.5063 17.9229 11.9167 17.4167 11.9167H16.3435C15.966 12.9848 14.9474 13.75 13.75 13.75C12.5527 13.75 11.534 12.9848 11.1565 11.9167H4.58335C4.07709 11.9167 3.66669 11.5063 3.66669 11C3.66669 10.4937 4.07709 10.0833 4.58335 10.0833H11.1565ZM8.25002 15.5833C7.74376 15.5833 7.33335 15.9937 7.33335 16.5C7.33335 17.0063 7.74376 17.4167 8.25002 17.4167C8.75628 17.4167 9.16669 17.0063 9.16669 16.5C9.16669 15.9937 8.75628 15.5833 8.25002 15.5833ZM5.6565 15.5833C6.03402 14.5152 7.05265 13.75 8.25002 13.75C9.44739 13.75 10.466 14.5152 10.8435 15.5833H17.4167C17.9229 15.5833 18.3334 15.9937 18.3334 16.5C18.3334 17.0063 17.9229 17.4167 17.4167 17.4167H10.8435C10.466 18.4848 9.44739 19.25 8.25002 19.25C7.05265 19.25 6.03402 18.4848 5.6565 17.4167H4.58335C4.07709 17.4167 3.66669 17.0063 3.66669 16.5C3.66669 15.9937 4.07709 15.5833 4.58335 15.5833H5.6565Z" fill="white"/>
</g>
</svg>
