<svg width="22" height="22" viewBox="0 0 22 22" fill="none" xmlns="http://www.w3.org/2000/svg">
<path d="M13.75 6.87484V18.3332M13.75 6.87484V4.58317C13.75 4.07691 13.3396 3.6665 12.8333 3.6665H9.16667C8.66041 3.6665 8.25 4.07691 8.25 4.58317V9.62484M13.75 6.87484H18.3333C18.8396 6.87484 19.25 7.28524 19.25 7.7915V17.4165C19.25 17.9228 18.8396 18.3332 18.3333 18.3332H13.75M13.75 18.3332H8.25M8.25 9.62484V18.3332M8.25 9.62484H3.66636C3.1601 9.62484 2.75 10.0352 2.75 10.5415V17.4165C2.75 17.9228 3.16041 18.3332 3.66667 18.3332H8.25" stroke="black" stroke-width="2" stroke-linecap="round" stroke-linejoin="round"/>
</svg>
