<svg width="48" height="48" viewBox="0 0 48 48" fill="none" xmlns="http://www.w3.org/2000/svg">
<circle cx="24" cy="24" r="24" fill="#D9D9D9"/>
<g clip-path="url(#clip0_34_189)">
<path d="M24 48C10.7445 48 0 37.2555 0 24C0 10.7445 10.7445 0 24 0C37.2555 0 48 10.7445 48 24C48 37.2555 37.2555 48 24 48ZM21.5925 35.373C22.224 38.0925 23.0835 39.7635 24.03 39.7635C25.5225 39.7635 26.799 35.5995 27.309 29.724C32.649 32.229 36.894 33.21 37.644 31.9155C38.3925 30.624 35.4285 27.4305 30.6015 24.0435C35.4465 20.676 38.421 17.496 37.6785 16.1985C37.1985 15.363 35.2575 15.4695 32.5035 16.3155C32.4112 16.1522 32.2774 16.0162 32.1157 15.9211C31.954 15.826 31.7701 15.7753 31.5825 15.774C31.4287 15.7761 31.2772 15.8107 31.1377 15.8755C30.9982 15.9403 30.874 16.0338 30.7732 16.1499C30.6724 16.2661 30.5972 16.4022 30.5526 16.5493C30.508 16.6965 30.4951 16.8515 30.5145 17.004C29.5095 17.385 28.4355 17.841 27.312 18.3615C26.802 12.4725 25.5255 8.2965 24.03 8.2965C22.536 8.2965 21.261 12.4605 20.751 18.3345C15.411 15.831 11.1645 14.85 10.416 16.1445C9.948 16.9545 10.932 18.5085 12.9195 20.3865C12.8975 20.4763 12.8864 20.5685 12.8865 20.661C12.8865 21.2745 13.3665 21.771 13.959 21.771C14.1058 21.7715 14.251 21.7408 14.385 21.681C15.3774 22.5009 16.4027 23.28 17.4585 24.0165C12.6135 27.384 9.639 30.564 10.383 31.8615C11.127 33.1575 15.3855 32.187 20.748 29.6985C20.862 31.017 21.015 32.25 21.198 33.3705C21.0535 33.4751 20.936 33.6127 20.8554 33.7719C20.7748 33.931 20.7333 34.1071 20.7345 34.2855C20.7345 34.821 21.1035 35.2695 21.5925 35.373ZM22.2885 35.2785C22.4692 35.1831 22.6201 35.0399 22.7249 34.8645C22.8296 34.6891 22.8841 34.4883 22.8825 34.284C22.8868 34.0053 22.7845 33.7354 22.5967 33.5294C22.4088 33.3234 22.1495 33.1969 21.8715 33.1755C21.6855 31.9755 21.5535 30.669 21.462 29.361C22.324 28.9458 23.1767 28.5117 24.0195 28.059C24.9075 28.539 25.779 28.9875 26.6265 29.3985C26.4878 30.8605 26.2992 32.3174 26.061 33.7665C25.3155 37.9875 24.273 38.8755 24.273 38.8755C24.051 39.1725 23.8275 38.9505 23.8275 38.9505C22.9335 37.9125 22.4865 35.988 22.4865 35.988C22.4142 35.7533 22.3482 35.5167 22.2885 35.2785ZM14.913 21.171C14.9922 21.0127 15.0332 20.838 15.033 20.661C15.033 20.046 14.553 19.551 13.959 19.551C13.7278 19.5509 13.5031 19.6273 13.32 19.7685C11.241 17.7735 11.0625 16.797 11.0625 16.797V16.794C10.917 16.452 11.2215 16.3695 11.2215 16.3695C12.567 16.1145 14.457 16.695 14.457 16.695C16.2345 17.1 18.492 18.051 20.688 19.122C20.6176 20.0828 20.5686 21.045 20.541 22.008C19.6845 22.533 18.8625 23.061 18.0855 23.5875C17.0046 22.8137 15.9467 22.0068 14.913 21.171ZM30.84 17.685C30.9375 17.7832 31.0534 17.8611 31.1811 17.9144C31.3087 17.9677 31.4457 17.9952 31.584 17.9955C32.118 17.9955 32.5605 17.5905 32.643 17.0625C35.388 16.2015 36.501 16.302 36.891 16.4085C36.9545 16.4259 37.0097 16.4654 37.0468 16.5198C37.0839 16.5742 37.1005 16.64 37.0935 16.7055C37.0185 17.511 35.5935 18.966 35.5935 18.966C33.8647 20.6729 31.9984 22.2347 30.0135 23.6355C29.1945 23.0765 28.3628 22.5364 27.519 22.0155C27.4921 21.047 27.4436 20.0793 27.3735 19.113C28.5136 18.6015 29.6706 18.1253 30.84 17.685ZM29.979 24.471C35.9505 28.803 36.9165 30.7575 37.068 31.338C37.0844 31.4013 37.0779 31.4684 37.0496 31.5275C37.0214 31.5865 36.9731 31.6336 36.9135 31.6605C36.1785 31.998 34.206 31.4955 34.206 31.4955C31.8627 30.8534 29.576 30.0201 27.369 29.004C27.4395 28.0575 27.489 27.069 27.519 26.0535C28.3785 25.5285 29.199 24.9975 29.979 24.471ZM20.5245 25.248C19.9216 24.8591 19.326 24.4591 18.738 24.048C19.338 23.6535 19.938 23.271 20.523 22.908C20.5107 23.688 20.5112 24.4681 20.5245 25.248ZM20.5425 26.043C20.5725 27.0435 20.6205 28.014 20.6895 28.947C19.3444 29.5577 17.9786 30.1215 16.5945 30.6375C12.564 32.0895 11.274 31.6275 11.274 31.6275C10.905 31.5825 10.989 31.2765 10.989 31.2765C11.442 29.9865 12.888 28.6395 12.888 28.6395C14.1285 27.3045 16.083 25.827 18.108 24.465C18.879 24.99 19.6935 25.5195 20.5425 26.0445V26.043ZM27.5385 22.863C28.308 23.3205 28.7655 23.607 28.7655 23.607C28.9845 23.7615 29.199 23.9115 29.406 24.06C28.6905 24.552 28.056 24.963 27.537 25.284C27.5512 24.4766 27.5517 23.6705 27.5385 22.863ZM26.694 28.689C25.9125 28.3185 25.239 27.9735 24.705 27.6885C25.425 27.2919 26.1381 26.8828 26.844 26.4615C26.808 27.2295 26.754 27.9795 26.694 28.689ZM21.3165 26.514C21.9806 26.9129 22.6512 27.3009 23.328 27.678C22.677 28.0125 22.032 28.326 21.414 28.614C21.3724 27.9145 21.3399 27.2144 21.3165 26.514ZM21.2925 25.734C21.2644 24.6422 21.2529 23.5501 21.258 22.458C22.166 21.9065 23.0821 21.3685 24.006 20.844C25.104 21.444 26.094 22.011 26.883 22.473C26.889 22.974 26.883 23.253 26.883 23.253C26.9047 24.0639 26.9017 24.8753 26.874 25.686C26.3985 25.971 26.124 26.118 26.124 26.118C25.4357 26.5386 24.7349 26.9383 24.0225 27.3165C23.538 27.0465 23.2725 26.8815 23.2725 26.8815C22.6014 26.518 21.9411 26.1363 21.2925 25.734ZM24.783 20.4075C25.563 19.9725 26.0415 19.7205 26.0415 19.7205C26.2755 19.611 26.5065 19.5045 26.7315 19.4025C26.802 20.259 26.841 21.009 26.862 21.6135C26.1758 21.1998 25.4827 20.7978 24.783 20.4075ZM21.357 19.4535C22.002 19.7775 22.638 20.1075 23.247 20.433C22.581 20.8019 21.9209 21.1815 21.267 21.5715C21.2775 20.6805 21.297 20.142 21.297 20.142L21.357 19.4535ZM21.435 18.66C22.1895 11.322 23.397 9.5055 23.823 9.0825C23.8696 9.03635 23.9309 9.00817 23.9963 9.00295C24.0616 8.99773 24.1267 9.01582 24.18 9.054C24.84 9.5235 25.395 11.4795 25.395 11.4795C26.0955 14.0835 26.469 16.62 26.667 18.6675C25.7823 19.0922 24.9071 19.5363 24.042 19.9995C23.1832 19.5334 22.314 19.0868 21.435 18.66ZM23.994 25.8435C24.4849 25.8435 24.9557 25.6485 25.3029 25.3014C25.65 24.9542 25.845 24.4834 25.845 23.9925C25.845 23.5016 25.65 23.0308 25.3029 22.6836C24.9557 22.3365 24.4849 22.1415 23.994 22.1415C23.5031 22.1415 23.0323 22.3365 22.6851 22.6836C22.338 23.0308 22.143 23.5016 22.143 23.9925C22.143 24.4834 22.338 24.9542 22.6851 25.3014C23.0323 25.6485 23.5031 25.8435 23.994 25.8435Z" fill="black"/>
</g>
<defs>
<clipPath id="clip0_34_189">
<rect width="48" height="48" fill="white"/>
</clipPath>
</defs>
</svg>
