<svg width="450" height="450" viewBox="0 0 450 450" fill="none" xmlns="http://www.w3.org/2000/svg">
<circle cx="225" cy="225" r="225" fill="black"/>
<g clip-path="url(#clip0_14_38)">
<path d="M225 450C100.73 450 0 349.27 0 225C0 100.73 100.73 0 225 0C349.27 0 450 100.73 450 225C450 349.27 349.27 450 225 450ZM202.43 331.622C208.35 357.117 216.408 372.783 225.281 372.783C239.273 372.783 251.241 333.745 256.022 278.663C306.084 302.147 345.881 311.344 352.913 299.208C359.93 287.1 332.142 257.161 286.889 225.408C332.311 193.837 360.197 164.025 353.236 151.861C348.736 144.028 330.539 145.027 304.72 152.958C303.855 151.427 302.601 150.152 301.085 149.26C299.569 148.369 297.844 147.893 296.086 147.881C294.644 147.901 293.223 148.226 291.916 148.833C290.608 149.44 289.444 150.317 288.499 151.406C287.553 152.494 286.849 153.77 286.431 155.15C286.013 156.53 285.891 157.982 286.073 159.413C276.652 162.984 266.583 167.259 256.05 172.139C251.269 116.93 239.302 77.7797 225.281 77.7797C211.275 77.7797 199.322 116.817 194.541 171.886C144.478 148.416 104.667 139.219 97.65 151.355C93.2625 158.948 102.487 173.517 121.12 191.123C120.914 191.966 120.81 192.83 120.811 193.697C120.811 199.448 125.311 204.103 130.866 204.103C132.242 204.107 133.603 203.82 134.859 203.259C144.163 210.946 153.776 218.25 163.673 225.155C118.252 256.725 90.3656 286.537 97.3406 298.702C104.316 310.852 144.239 301.753 194.512 278.423C195.581 290.784 197.016 302.344 198.731 312.848C197.376 313.829 196.275 315.119 195.519 316.611C194.764 318.103 194.375 319.754 194.386 321.427C194.386 326.447 197.845 330.652 202.43 331.622ZM208.955 330.736C210.648 329.842 212.063 328.499 213.046 326.855C214.028 325.21 214.539 323.328 214.523 321.413C214.563 318.799 213.605 316.269 211.844 314.338C210.083 312.407 207.651 311.221 205.045 311.02C203.302 299.77 202.064 287.522 201.206 275.259C209.287 271.367 217.281 267.297 225.183 263.053C233.508 267.553 241.678 271.758 249.623 275.611C248.323 289.317 246.555 302.975 244.322 316.561C237.333 356.133 227.559 364.458 227.559 364.458C225.478 367.242 223.383 365.161 223.383 365.161C215.002 355.43 210.811 337.388 210.811 337.388C210.133 335.187 209.514 332.969 208.955 330.736ZM139.809 198.478C140.551 196.994 140.937 195.356 140.934 193.697C140.934 187.931 136.434 183.291 130.866 183.291C128.698 183.289 126.592 184.006 124.875 185.33C105.384 166.627 103.711 157.472 103.711 157.472V157.444C102.347 154.238 105.202 153.464 105.202 153.464C117.816 151.073 135.534 156.516 135.534 156.516C152.198 160.312 173.363 169.228 193.95 179.269C193.29 188.276 192.831 197.297 192.572 206.325C184.542 211.247 176.836 216.197 169.552 221.133C159.418 213.878 149.5 206.314 139.809 198.478ZM289.125 165.797C290.039 166.717 291.126 167.448 292.322 167.947C293.519 168.447 294.803 168.705 296.1 168.708C301.106 168.708 305.255 164.911 306.028 159.961C331.762 151.889 342.197 152.831 345.853 153.83C346.448 153.993 346.966 154.363 347.314 154.873C347.662 155.383 347.817 156 347.752 156.614C347.048 164.166 333.689 177.806 333.689 177.806C317.482 193.809 299.985 208.45 281.377 221.583C273.698 216.342 265.901 211.279 257.991 206.395C257.739 197.316 257.284 188.243 256.627 179.184C267.315 174.389 278.162 169.925 289.125 165.797ZM281.053 229.416C337.036 270.028 346.092 288.352 347.513 293.794C347.666 294.388 347.605 295.017 347.34 295.57C347.075 296.123 346.623 296.565 346.064 296.817C339.173 299.981 320.681 295.27 320.681 295.27C298.713 289.25 277.275 281.438 256.584 271.913C257.245 263.039 257.709 253.772 257.991 244.252C266.048 239.33 273.741 234.352 281.053 229.416ZM192.417 236.7C186.765 233.054 181.181 229.304 175.669 225.45C181.294 221.752 186.919 218.166 192.403 214.762C192.288 222.075 192.292 229.388 192.417 236.7ZM192.586 244.153C192.867 253.533 193.317 262.631 193.964 271.378C181.354 277.103 168.55 282.389 155.573 287.227C117.788 300.839 105.694 296.508 105.694 296.508C102.234 296.086 103.022 293.217 103.022 293.217C107.269 281.123 120.825 268.495 120.825 268.495C132.455 255.98 150.778 242.128 169.762 229.359C176.991 234.281 184.627 239.245 192.586 244.167V244.153ZM258.173 214.341C265.387 218.63 269.677 221.316 269.677 221.316C271.73 222.764 273.741 224.17 275.681 225.563C268.973 230.175 263.025 234.028 258.159 237.038C258.293 229.468 258.298 221.91 258.173 214.341ZM250.256 268.959C242.93 265.486 236.616 262.252 231.609 259.58C238.36 255.861 245.045 252.026 251.663 248.077C251.325 255.277 250.819 262.308 250.256 268.959ZM199.842 248.569C206.068 252.308 212.355 255.946 218.7 259.481C212.597 262.617 206.55 265.556 200.756 268.256C200.366 261.698 200.062 255.135 199.842 248.569ZM199.617 241.256C199.354 231.021 199.246 220.782 199.294 210.544C207.806 205.374 216.395 200.329 225.056 195.413C235.35 201.038 244.631 206.353 252.028 210.684C252.084 215.381 252.028 217.997 252.028 217.997C252.232 225.599 252.204 233.206 251.944 240.806C247.486 243.478 244.913 244.856 244.913 244.856C238.46 248.799 231.89 252.546 225.211 256.092C220.669 253.561 218.18 252.014 218.18 252.014C211.888 248.606 205.698 245.028 199.617 241.256ZM232.341 191.32C239.653 187.242 244.139 184.88 244.139 184.88C246.333 183.853 248.498 182.855 250.608 181.898C251.269 189.928 251.634 196.959 251.831 202.627C245.398 198.748 238.901 194.979 232.341 191.32ZM200.222 182.377C206.269 185.414 212.231 188.508 217.941 191.559C211.697 195.018 205.508 198.576 199.378 202.233C199.477 193.88 199.659 188.831 199.659 188.831L200.222 182.377ZM200.953 174.938C208.027 106.144 219.347 89.1141 223.341 85.1484C223.777 84.7158 224.353 84.4516 224.965 84.4027C225.578 84.3538 226.188 84.5233 226.688 84.8812C232.875 89.2828 238.078 107.62 238.078 107.62C244.645 132.033 248.147 155.812 250.003 175.008C241.709 178.989 233.504 183.153 225.394 187.495C217.343 183.125 209.194 178.938 200.953 174.938ZM224.944 242.283C229.546 242.283 233.96 240.455 237.214 237.2C240.469 233.946 242.297 229.532 242.297 224.93C242.297 220.327 240.469 215.914 237.214 212.659C233.96 209.405 229.546 207.577 224.944 207.577C220.341 207.577 215.928 209.405 212.673 212.659C209.419 215.914 207.591 220.327 207.591 224.93C207.591 229.532 209.419 233.946 212.673 237.2C215.928 240.455 220.341 242.283 224.944 242.283Z" fill="white"/>
</g>
<defs>
<clipPath id="clip0_14_38">
<rect width="450" height="450" fill="white"/>
</clipPath>
</defs>
</svg>
